<?xml version="1.0" encoding="UTF-8" standalone="no"?> <svg xmlns:dc="http://purl.org/dc/elements/1.1/" xmlns:cc="http://creativecommons.org/ns#" xmlns:rdf="http://www.w3.org/1999/02/22-rdf-syntax-ns#" xmlns:svg="http://www.w3.org/2000/svg" xmlns="http://www.w3.org/2000/svg" xmlns:sodipodi="http://sodipodi.sourceforge.net/DTD/sodipodi-0.dtd" xmlns:inkscape="http://www.inkscape.org/namespaces/inkscape" sodipodi:docname="LOGO2 site sem slogan.svg" inkscape:version="1.0 (4035a4fb49, 2020-05-01)" id="svg8" version="1.1" viewBox="0 0 170 27" height="27mm" width="170mm"><defs id="defs2"></defs><metadata id="metadata5"></metadata><g id="layer1" inkscape:groupmode="layer" inkscape:label="Layer 1"><g transform="translate(-19.854581,-105.86643)" id="g150"><g style="fill:#04568c;fill-opacity:1;stroke:none;stroke-opacity:1" id="g910" transform="matrix(2.0333728,0,0,2.0333728,-173.76165,-180.94469)"><g style="fill:#04568c;fill-opacity:1;stroke:none;stroke-opacity:1" id="g894"><path style="fill:#04568c;fill-opacity:1;stroke:none;stroke-width:0.1;stroke-linecap:butt;stroke-linejoin:miter;stroke-miterlimit:4;stroke-dasharray:none;stroke-opacity:1" d="m 102.43155,142.68601 v 1.6064 c 0,0 1.31096,-0.1233 2.50983,0.69487 2.56908,1.75328 1.40593,5.07737 1.40593,5.07737 0,0 1.99941,-3.94596 -1.08094,-6.3392 -1.1873,-0.92245 -2.83482,-1.03944 -2.83482,-1.03944 z" id="path26" sodipodi:nodetypes="ccscsc"></path><path sodipodi:nodetypes="ccscsc" id="path26-4" d="m 101.90306,152.5042 0.0275,-1.60617 c 0,0 -1.31288,0.10084 -2.497567,-0.73775 -2.538679,-1.79701 -1.318781,-5.10069 -1.318781,-5.10069 0,0 -2.066685,3.91114 0.972231,6.35678 1.171337,0.94264 2.816607,1.08783 2.816607,1.08783 z" style="fill:#04568c;fill-opacity:1;stroke:none;stroke-width:0.1;stroke-linecap:butt;stroke-linejoin:miter;stroke-miterlimit:4;stroke-dasharray:none;stroke-opacity:1"></path></g><g style="fill:#04568c;fill-opacity:1;stroke:none;stroke-opacity:1" id="g890"><path id="path866" style="fill:#04568c;fill-opacity:1;stroke:none;stroke-width:0.0839485;stroke-miterlimit:4;stroke-dasharray:none;stroke-opacity:1" d="m 102.57004,146.52914 a 1.7985039,1.9051125 0 0 0 -0.10567,0.004 v 3.80316 a 1.7985039,1.9051125 0 0 0 0.10567,0.004 1.7985039,1.9051125 0 0 0 1.79866,-1.90511 1.7985039,1.9051125 0 0 0 -1.79866,-1.90509 z"></path><path d="m 101.82069,148.59726 a 1.9051125,1.7985039 89.604754 0 0 0.10563,-0.005 l -0.0262,-3.80307 a 1.9051125,1.7985039 89.604754 0 0 -0.1057,-0.003 1.9051125,1.7985039 89.604754 0 0 -1.78547,1.91747 1.9051125,1.7985039 89.604754 0 0 1.81176,1.89264 z" style="fill:#04568c;fill-opacity:1;stroke:none;stroke-width:0.0839486;stroke-miterlimit:4;stroke-dasharray:none;stroke-opacity:1" id="path866-0"></path></g></g><text xml:space="preserve" style="font-style:normal;font-weight:normal;font-size:16.7693px;line-height:1.25;font-family:sans-serif;fill:#04568c;fill-opacity:1;stroke:none;stroke-width:0.419234;stroke-opacity:1" x="49.352222" y="123.93993" id="text914"><tspan sodipodi:role="line" id="tspan912" x="49.352222" y="123.93993" style="font-style:normal;font-variant:normal;font-weight:normal;font-stretch:normal;font-family:'Times New Roman';-inkscape-font-specification:'Times New Roman, ';fill:#04568c;fill-opacity:1;stroke:none;stroke-width:0.419234;stroke-opacity:1">C<tspan style="font-size:11.1796px;fill:#04568c;fill-opacity:1;stroke:none;stroke-width:0.419234;stroke-opacity:1" id="tspan916">LEIDE </tspan>S<tspan style="font-size:11.1796px;fill:#04568c;fill-opacity:1;stroke:none;stroke-width:0.419234;stroke-opacity:1" id="tspan924">ALEM</tspan> S<tspan style="font-size:11.1796px;fill:#04568c;fill-opacity:1;stroke:none;stroke-width:0.419234;stroke-opacity:1" id="tspan928">ARKIS</tspan></tspan></text></g></g></svg> 